<?xml version="1.0" encoding="UTF-8"?>
<svg xmlns="http://www.w3.org/2000/svg" width="540" height="540" viewBox="0 0 540 540">
  <rect width="540" height="540" fill="#ffffff" />
  <rect x="30" y="30" width="60" height="60" fill="#f0d9b5" stroke="none" />
  <rect x="90" y="30" width="60" height="60" fill="#b58863" stroke="none" />
  <rect x="150" y="30" width="60" height="60" fill="#f0d9b5" stroke="none" />
  <rect x="210" y="30" width="60" height="60" fill="#b58863" stroke="none" />
  <rect x="270" y="30" width="60" height="60" fill="#f0d9b5" stroke="none" />
  <rect x="330" y="30" width="60" height="60" fill="#b58863" stroke="none" />
  <rect x="390" y="30" width="60" height="60" fill="#f0d9b5" stroke="none" />
  <rect x="450" y="30" width="60" height="60" fill="#b58863" stroke="none" />
  <rect x="30" y="90" width="60" height="60" fill="#b58863" stroke="none" />
  <rect x="90" y="90" width="60" height="60" fill="#f0d9b5" stroke="none" />
  <rect x="150" y="90" width="60" height="60" fill="#b58863" stroke="none" />
  <rect x="210" y="90" width="60" height="60" fill="#f0d9b5" stroke="none" />
  <rect x="270" y="90" width="60" height="60" fill="#b58863" stroke="none" />
  <rect x="330" y="90" width="60" height="60" fill="#f0d9b5" stroke="none" />
  <rect x="390" y="90" width="60" height="60" fill="#b58863" stroke="none" />
  <rect x="450" y="90" width="60" height="60" fill="#f0d9b5" stroke="none" />
  <rect x="30" y="150" width="60" height="60" fill="#f0d9b5" stroke="none" />
  <rect x="90" y="150" width="60" height="60" fill="#b58863" stroke="none" />
  <rect x="150" y="150" width="60" height="60" fill="#f0d9b5" stroke="none" />
  <rect x="210" y="150" width="60" height="60" fill="#b58863" stroke="none" />
  <rect x="270" y="150" width="60" height="60" fill="#f0d9b5" stroke="none" />
  <rect x="330" y="150" width="60" height="60" fill="#b58863" stroke="none" />
  <rect x="390" y="150" width="60" height="60" fill="#f0d9b5" stroke="none" />
  <rect x="450" y="150" width="60" height="60" fill="#b58863" stroke="none" />
  <rect x="30" y="210" width="60" height="60" fill="#b58863" stroke="none" />
  <rect x="90" y="210" width="60" height="60" fill="#f0d9b5" stroke="none" />
  <rect x="150" y="210" width="60" height="60" fill="#b58863" stroke="none" />
  <rect x="210" y="210" width="60" height="60" fill="#f0d9b5" stroke="none" />
  <rect x="270" y="210" width="60" height="60" fill="#b58863" stroke="none" />
  <rect x="330" y="210" width="60" height="60" fill="#f0d9b5" stroke="none" />
  <rect x="390" y="210" width="60" height="60" fill="#b58863" stroke="none" />
  <rect x="450" y="210" width="60" height="60" fill="#f0d9b5" stroke="none" />
  <rect x="30" y="270" width="60" height="60" fill="#f0d9b5" stroke="none" />
  <rect x="90" y="270" width="60" height="60" fill="#b58863" stroke="none" />
  <rect x="150" y="270" width="60" height="60" fill="#f0d9b5" stroke="none" />
  <rect x="210" y="270" width="60" height="60" fill="#b58863" stroke="none" />
  <rect x="270" y="270" width="60" height="60" fill="#f0d9b5" stroke="none" />
  <rect x="330" y="270" width="60" height="60" fill="#b58863" stroke="none" />
  <rect x="390" y="270" width="60" height="60" fill="#f0d9b5" stroke="none" />
  <rect x="450" y="270" width="60" height="60" fill="#b58863" stroke="none" />
  <rect x="30" y="330" width="60" height="60" fill="#b58863" stroke="none" />
  <rect x="90" y="330" width="60" height="60" fill="#f0d9b5" stroke="none" />
  <rect x="150" y="330" width="60" height="60" fill="#b58863" stroke="none" />
  <rect x="210" y="330" width="60" height="60" fill="#f0d9b5" stroke="none" />
  <rect x="270" y="330" width="60" height="60" fill="#b58863" stroke="none" />
  <rect x="330" y="330" width="60" height="60" fill="#f0d9b5" stroke="none" />
  <rect x="390" y="330" width="60" height="60" fill="#b58863" stroke="none" />
  <rect x="450" y="330" width="60" height="60" fill="#f0d9b5" stroke="none" />
  <rect x="30" y="390" width="60" height="60" fill="#f0d9b5" stroke="none" />
  <rect x="90" y="390" width="60" height="60" fill="#b58863" stroke="none" />
  <rect x="150" y="390" width="60" height="60" fill="#f0d9b5" stroke="none" />
  <rect x="210" y="390" width="60" height="60" fill="#b58863" stroke="none" />
  <rect x="270" y="390" width="60" height="60" fill="#f0d9b5" stroke="none" />
  <rect x="330" y="390" width="60" height="60" fill="#b58863" stroke="none" />
  <rect x="390" y="390" width="60" height="60" fill="#f0d9b5" stroke="none" />
  <rect x="450" y="390" width="60" height="60" fill="#b58863" stroke="none" />
  <rect x="30" y="450" width="60" height="60" fill="#b58863" stroke="none" />
  <rect x="90" y="450" width="60" height="60" fill="#f0d9b5" stroke="none" />
  <rect x="150" y="450" width="60" height="60" fill="#b58863" stroke="none" />
  <rect x="210" y="450" width="60" height="60" fill="#f0d9b5" stroke="none" />
  <rect x="270" y="450" width="60" height="60" fill="#b58863" stroke="none" />
  <rect x="330" y="450" width="60" height="60" fill="#f0d9b5" stroke="none" />
  <rect x="390" y="450" width="60" height="60" fill="#b58863" stroke="none" />
  <rect x="450" y="450" width="60" height="60" fill="#f0d9b5" stroke="none" />
  <text x="60" y="20" fill="#777777" font-size="12" font-family="sans-serif" text-anchor="middle">a</text>
  <text x="60" y="530" fill="#777777" font-size="12" font-family="sans-serif" text-anchor="middle">a</text>
  <text x="120" y="20" fill="#777777" font-size="12" font-family="sans-serif" text-anchor="middle">b</text>
  <text x="120" y="530" fill="#777777" font-size="12" font-family="sans-serif" text-anchor="middle">b</text>
  <text x="180" y="20" fill="#777777" font-size="12" font-family="sans-serif" text-anchor="middle">c</text>
  <text x="180" y="530" fill="#777777" font-size="12" font-family="sans-serif" text-anchor="middle">c</text>
  <text x="240" y="20" fill="#777777" font-size="12" font-family="sans-serif" text-anchor="middle">d</text>
  <text x="240" y="530" fill="#777777" font-size="12" font-family="sans-serif" text-anchor="middle">d</text>
  <text x="300" y="20" fill="#777777" font-size="12" font-family="sans-serif" text-anchor="middle">e</text>
  <text x="300" y="530" fill="#777777" font-size="12" font-family="sans-serif" text-anchor="middle">e</text>
  <text x="360" y="20" fill="#777777" font-size="12" font-family="sans-serif" text-anchor="middle">f</text>
  <text x="360" y="530" fill="#777777" font-size="12" font-family="sans-serif" text-anchor="middle">f</text>
  <text x="420" y="20" fill="#777777" font-size="12" font-family="sans-serif" text-anchor="middle">g</text>
  <text x="420" y="530" fill="#777777" font-size="12" font-family="sans-serif" text-anchor="middle">g</text>
  <text x="480" y="20" fill="#777777" font-size="12" font-family="sans-serif" text-anchor="middle">h</text>
  <text x="480" y="530" fill="#777777" font-size="12" font-family="sans-serif" text-anchor="middle">h</text>
  <text x="18" y="64" fill="#777777" font-size="12" font-family="sans-serif" text-anchor="middle">8</text>
  <text x="522" y="64" fill="#777777" font-size="12" font-family="sans-serif" text-anchor="middle">8</text>
  <text x="18" y="124" fill="#777777" font-size="12" font-family="sans-serif" text-anchor="middle">7</text>
  <text x="522" y="124" fill="#777777" font-size="12" font-family="sans-serif" text-anchor="middle">7</text>
  <text x="18" y="184" fill="#777777" font-size="12" font-family="sans-serif" text-anchor="middle">6</text>
  <text x="522" y="184" fill="#777777" font-size="12" font-family="sans-serif" text-anchor="middle">6</text>
  <text x="18" y="244" fill="#777777" font-size="12" font-family="sans-serif" text-anchor="middle">5</text>
  <text x="522" y="244" fill="#777777" font-size="12" font-family="sans-serif" text-anchor="middle">5</text>
  <text x="18" y="304" fill="#777777" font-size="12" font-family="sans-serif" text-anchor="middle">4</text>
  <text x="522" y="304" fill="#777777" font-size="12" font-family="sans-serif" text-anchor="middle">4</text>
  <text x="18" y="364" fill="#777777" font-size="12" font-family="sans-serif" text-anchor="middle">3</text>
  <text x="522" y="364" fill="#777777" font-size="12" font-family="sans-serif" text-anchor="middle">3</text>
  <text x="18" y="424" fill="#777777" font-size="12" font-family="sans-serif" text-anchor="middle">2</text>
  <text x="522" y="424" fill="#777777" font-size="12" font-family="sans-serif" text-anchor="middle">2</text>
  <text x="18" y="484" fill="#777777" font-size="12" font-family="sans-serif" text-anchor="middle">1</text>
  <text x="522" y="484" fill="#777777" font-size="12" font-family="sans-serif" text-anchor="middle">1</text>
  <path fill="none" stroke="#d9383a" stroke-width="2.5" stroke-linecap="round" stroke-linejoin="round" opacity="0.85" d="M 60 60 L 120 180 L 60 300 L 120 420 L 240 480 L 360 420 L 480 480 L 420 360 L 300 420 L 180 480 L 240 360 L 300 480 L 420 420 L 480 300 L 360 360 L 240 420 L 120 480 L 180 360 L 60 420 L 120 300 L 180 420 L 60 480 L 120 360 L 240 300 L 360 240 L 300 360 L 360 480 L 480 420 L 420 300 L 480 180 L 420 60 L 300 120 L 180 180 L 60 240 L 180 300 L 60 360 L 120 240 L 60 120 L 180 60 L 240 180 L 300 300 L 420 240 L 480 120 L 360 60 L 300 180 L 180 240 L 120 120 L 240 60 L 360 120 L 480 60 L 420 180 L 300 240 L 240 120 L 120 60 L 60 180 L 180 120 L 240 240 L 360 180 L 300 60 L 420 120 L 480 240 L 360 300 L 480 360 L 420 480" />
  <circle cx="60" cy="60" r="11" fill="#2e7d32" stroke="#ffffff" stroke-width="2" />
  <text x="60" y="60" fill="#ffffff" font-size="10" font-family="sans-serif" text-anchor="middle" dominant-baseline="central">0</text>
  <circle cx="420" cy="480" r="11" fill="#c62828" stroke="#ffffff" stroke-width="2" />
  <text x="420" y="480" fill="#ffffff" font-size="10" font-family="sans-serif" text-anchor="middle" dominant-baseline="central">63</text>
</svg>
